<svg width="16" height="18" viewBox="0 0 16 18" fill="none" xmlns="http://www.w3.org/2000/svg">
<g clip-path="url(#clip0_1521_121)">
<mask id="mask0_1521_121" style="mask-type:luminance" maskUnits="userSpaceOnUse" x="1" y="0" width="15" height="18">
<path d="M16 0.992188H1V18.0001H16V0.992188Z" fill="white"/>
</mask>
<g mask="url(#mask0_1521_121)">
<path d="M15.6858 4.49306C16.1044 4.9083 16.1044 5.58263 15.6858 5.99786L7.1144 14.5018C6.69587 14.917 6.01618 14.917 5.59766 14.5018L1.31194 10.2498C0.893416 9.8346 0.893416 9.16026 1.31194 8.74503C1.73047 8.3298 2.41016 8.3298 2.82868 8.74503L6.3577 12.2429L14.1724 4.49306C14.591 4.07783 15.2706 4.07783 15.6892 4.49306H15.6858Z" fill="#3B3B3B"/>
</g>
<mask id="mask1_1521_121" style="mask-type:luminance" maskUnits="userSpaceOnUse" x="0" y="0" width="15" height="18">
<path d="M15 0H0V17.0079H15V0Z" fill="white"/>
</mask>
<g mask="url(#mask1_1521_121)">
<path d="M14.6858 3.50088C15.1044 3.91611 15.1044 4.59044 14.6858 5.00567L6.1144 13.5096C5.69587 13.9248 5.01618 13.9248 4.59766 13.5096L0.311942 9.25764C-0.106585 8.84241 -0.106585 8.16808 0.311942 7.75285C0.730469 7.33761 1.41016 7.33761 1.82868 7.75285L5.3577 11.2508L13.1724 3.50088C13.591 3.08565 14.2706 3.08565 14.6892 3.50088H14.6858Z" fill="#6087C5"/>
</g>
</g>
<defs>
<clipPath id="clip0_1521_121">
<rect width="16" height="18" fill="white"/>
</clipPath>
</defs>
</svg>
