<svg width="30" height="30" viewBox="0 0 30 30" fill="none" xmlns="http://www.w3.org/2000/svg">
<path d="M13.2305 27.4323L13.084 27.2976L2.81836 17.7644C1.01953 16.0944 0 13.7507 0 11.2956V11.1022C0 6.97725 2.92969 3.43818 6.98438 2.66475C9.29297 2.21943 11.6543 2.75264 13.5352 4.07686C14.0625 4.45186 14.5547 4.88545 15 5.3835C15.2461 5.10225 15.5098 4.84443 15.791 4.6042C16.0078 4.4167 16.2305 4.24092 16.4648 4.07686C18.3457 2.75264 20.707 2.21943 23.0156 2.65889C27.0703 3.43232 30 6.97725 30 11.1022V11.2956C30 13.7507 28.9805 16.0944 27.1816 17.7644L16.916 27.2976L16.7695 27.4323C16.2891 27.8776 15.6562 28.1296 15 28.1296C14.3438 28.1296 13.7109 27.8835 13.2305 27.4323ZM14.0098 8.49482C13.9863 8.47725 13.9688 8.45381 13.9512 8.43037L12.9082 7.2585L12.9023 7.25264C11.5488 5.73506 9.50391 5.04365 7.51172 5.42451C4.78125 5.946 2.8125 8.3249 2.8125 11.1022V11.2956C2.8125 12.9655 3.50977 14.5651 4.73438 15.7019L15 25.2351L25.2656 15.7019C26.4902 14.5651 27.1875 12.9655 27.1875 11.2956V11.1022C27.1875 8.33076 25.2188 5.946 22.4941 5.42451C20.502 5.04365 18.4512 5.74092 17.1035 7.25264C17.1035 7.25264 17.1035 7.25264 17.0977 7.2585C17.0918 7.26436 17.0977 7.2585 17.0918 7.26436L16.0488 8.43623C16.0312 8.45967 16.0078 8.47725 15.9902 8.50068C15.7266 8.76436 15.3691 8.91084 15 8.91084C14.6309 8.91084 14.2734 8.76436 14.0098 8.50068V8.49482Z" fill="white"/>
</svg>
