<svg width="39" height="45" viewBox="0 0 39 45" fill="none" xmlns="http://www.w3.org/2000/svg">
<path d="M2.74219 5.58105C0 8.34961 0 12.8057 0 21.709V23.291C0 32.1943 0 36.6504 2.74219 39.4189C5.48438 42.1875 9.89799 42.1875 18.7165 42.1875H20.2835C29.102 42.1875 33.5156 42.1875 36.2578 39.4189C39 36.6504 39 32.1943 39 23.291V21.709C39 12.8057 39 8.34961 36.2578 5.58105C33.5156 2.8125 29.102 2.8125 20.2835 2.8125H18.7165C9.89799 2.8125 5.48438 2.8125 2.74219 5.58105ZM6.58125 14.792H11.0297C11.1777 22.3066 14.4596 25.4883 17.0625 26.1387V14.792H21.2585V21.2695C23.8266 20.9883 26.5165 18.0352 27.4306 14.792H31.6266C31.2783 16.4707 30.5993 18.0703 29.6156 19.4766C28.6319 20.8828 27.3784 22.0693 25.9159 22.957C27.5438 23.7744 28.9801 24.9258 30.1292 26.3496C31.2871 27.7646 32.1228 29.4082 32.6016 31.1748H27.979C27.5612 29.6455 26.6906 28.2656 25.498 27.2285C24.2967 26.1826 22.8254 25.5234 21.2585 25.3213V31.1748H20.7536C11.8654 31.1748 6.79018 25.0225 6.58125 14.792Z" fill="#EE4747"/>
</svg>
