<svg width="11" height="15" viewBox="0 0 11 15" fill="none" xmlns="http://www.w3.org/2000/svg">
<path d="M9.81361 4.41235C10.1717 4.04614 10.1717 3.45142 9.81361 3.08521C9.45553 2.71899 8.87402 2.71899 8.51595 3.08521L5.49954 6.1731L2.48027 3.08813C2.1222 2.72192 1.54069 2.72192 1.18262 3.08813C0.824544 3.45435 0.824544 4.04907 1.18262 4.41528L4.20189 7.50024L1.18548 10.5881C0.827409 10.9543 0.827409 11.5491 1.18548 11.9153C1.54355 12.2815 2.12507 12.2815 2.48314 11.9153L5.49954 8.82739L8.51882 11.9124C8.87689 12.2786 9.4584 12.2786 9.81647 11.9124C10.1745 11.5461 10.1745 10.9514 9.81647 10.5852L6.7972 7.50024L9.81361 4.41235Z" fill="#767676"/>
</svg>
