<svg height="50px" viewBox="0 -39 479.994 479" width="479pt" xmlns="http://www.w3.org/2000/svg"><path d="m461.136719 253.394531 3.800781-27.832031c.496094-3.617188-1.523438-7.113281-4.90625-8.496094l-26.007812-10.59375-10.589844-26.007812c-1.242188-3.039063-4.210938-4.871094-7.425782-4.871094v-135.097656c0-22.054688-17.945312-40-40-40h-336.007812c-22.054688 0-40 17.945312-40 40v192c0 22.058594 17.945312 40 40 40h204.078125l-2.398437 3.105468c-2.230469 2.878907-2.230469 6.910157 0 9.800782l17.191406 22.199218-3.800782 27.832032c-.496093 3.617187 1.523438 7.113281 4.90625 8.496094l26.007813 10.589843 10.589844 26.007813c1.386719 3.386718 4.890625 5.441406 8.496093 4.90625l27.832032-3.800782 22.203125 17.191407c1.4375 1.113281 3.167969 1.671875 4.894531 1.671875s3.457031-.558594 4.894531-1.671875l22.203125-17.191407 27.832032 3.800782c3.589843.496094 7.109374-1.519532 8.496093-4.90625l10.589844-26.007813 26.007813-10.589843c3.382812-1.375 5.402343-4.871094 4.90625-8.496094l-3.800782-27.832032 17.191406-22.199218c2.230469-2.882813 2.230469-6.914063 0-9.800782zm-61.136719-148.898437h-384v-32h384zm-360-88h336c13.230469 0 24 10.769531 24 24v16h-384v-16c0-13.230469 10.769531-24 24-24zm0 240c-13.230469 0-24-10.765625-24-24v-112h384v57.113281l-12.894531 1.757813-22.203125-17.191407c-2.878906-2.230469-6.910156-2.230469-9.796875 0l-22.203125 17.191407-27.832032-3.796876c-3.644531-.511718-7.109374 1.519532-8.496093 4.902344l-10.589844 26.007813-26.007813 10.59375c-3.382812 1.375-5.402343 4.871093-4.90625 8.496093l3.800782 27.832032-2.398438 3.09375zm406.425781 43.960937c-1.320312 1.695313-1.898437 3.847657-1.601562 5.984375l3.414062 25.007813-23.375 9.519531c-1.992187.816406-3.574219 2.398438-4.390625 4.390625l-9.519531 23.378906-25-3.417969c-2.121094-.304687-4.289063.289063-5.984375 1.601563l-19.96875 15.457031-19.960938-15.457031c-1.40625-1.097656-3.136718-1.671875-4.894531-1.671875-.359375 0-.71875.023438-1.082031.070312l-25.007812 3.417969-9.519532-23.378906c-.816406-1.992187-2.398437-3.574219-4.390625-4.390625l-23.375-9.519531 3.414063-25c.296875-2.128907-.289063-4.28125-1.597656-5.984375l-15.464844-19.96875 15.453125-19.960938c1.320312-1.695312 1.898437-3.847656 1.601562-5.980468l-3.414062-25.007813 23.375-9.523437c1.992187-.8125 3.574219-2.398438 4.390625-4.390626l9.519531-23.375 25 3.414063c2.128906.304687 4.289063-.277344 5.984375-1.597656l19.96875-15.457031 19.960938 15.457031c1.703124 1.320312 3.863281 1.910156 5.984374 1.597656l25.007813-3.414063 9.519531 23.375c.816406 1.992188 2.398438 3.578126 4.390625 4.390626l23.375 9.523437-3.414062 25c-.296875 2.125.289062 4.277344 1.601562 5.980469l15.453125 19.96875zm0 0"/><path d="m313.847656 323.355469 80-95.996094 12.292969 10.242187-80 95.996094zm0 0"/><path d="m320 248.496094h16v16h-16zm0 0"/><path d="m384 296.496094h16v16h-16zm0 0"/><path d="m192 136.496094h-144c-4.414062 0-8 3.585937-8 8v32c0 4.417968 3.585938 8 8 8h144c4.414062 0 8-3.582032 8-8v-32c0-4.414063-3.585938-8-8-8zm-8 32h-128v-16h128zm0 0"/><path d="m216 136.496094h16v16h-16zm0 0"/><path d="m248 136.496094h16v16h-16zm0 0"/><path d="m280 136.496094h16v16h-16zm0 0"/><path d="m125.65625 210.839844c-1.496094-1.503906-3.535156-2.34375-5.65625-2.34375h-24c-2.121094 0-4.160156.839844-5.65625 2.34375l-8.152344 8.152344-3.03125-6.070313c-1.359375-2.710937-4.128906-4.425781-7.160156-4.425781h-24v16h19.054688l5.792968 11.578125c1.152344 2.304687 3.335938 3.902343 5.871094 4.320312.425781.070313.855469.101563 1.28125.101563 2.105469 0 4.144531-.832032 5.65625-2.34375l13.65625-13.65625h17.375l13.65625 13.65625c1.496094 1.503906 3.535156 2.34375 5.65625 2.34375h8v-16h-4.6875zm0 0"/></svg>