<svg width="17" height="16" viewBox="0 0 17 16" fill="none" xmlns="http://www.w3.org/2000/svg">
<path d="M16.9182 12.2727L16.8386 12.0418C16.65 11.5023 16.0318 10.9396 15.4638 10.7914L13.3617 10.2388C12.7917 10.0895 11.9785 10.2902 11.5615 10.6915L10.8007 11.4236C8.03589 10.7047 5.86784 8.6183 5.12176 5.95821L5.88256 5.22608C6.29963 4.82473 6.50813 4.04325 6.35305 3.4947L5.77985 1.47087C5.62477 0.923309 5.039 0.328381 4.47945 0.148873L4.2395 0.0712356C3.67887 -0.108272 2.87934 0.0732684 2.4623 0.474588L1.32429 1.57071C1.12099 1.76532 0.991051 2.32194 0.991051 2.32397C0.951248 5.80087 2.36797 9.15069 4.92372 11.6101C7.47319 14.0635 10.9412 15.4249 14.5437 15.3956C14.5626 15.3956 15.1578 15.2726 15.3611 15.0779L16.4991 13.9828C16.9161 13.5815 17.1047 12.8122 16.9182 12.2727Z" fill="#454546"/>
</svg>
