<svg class="svg-fill" id="Capa_1" enable-background="new 0 0 512 512" height="512" viewBox="0 0 512 512" width="512"  xmlns="http://www.w3.org/2000/svg"><g>
<path class="svg-fill" d="m181.466 174.137c13.669-5.782 27.827-9.903 42.335-12.359l-37.689-161.778h-102.59l47.81 205.225c15.013-12.909 31.82-23.342 50.134-31.088z"/>
<circle class="svg-fill" cx="256" cy="350.54" r="16.867" />
<path class="svg-fill" d="m209.133 350.54c0-1.747.104-3.47.291-5.168l-26.846-12.498c-1.365 5.671-2.107 11.582-2.107 17.666 0 5.789.677 11.419 1.916 16.838l26.951-12.547c-.13-1.415-.205-2.844-.205-4.291z"/>
<path class="svg-fill" d="m256 303.672c13.014 0 24.803 5.336 33.303 13.93l26.948-12.546c-13.8-18.237-35.67-30.046-60.251-30.046-24.865 0-46.956 12.083-60.727 30.681l26.859 12.504c8.539-8.938 20.56-14.523 33.868-14.523z"/>
<path class="svg-fill" d="m302.473 344.563c.251 1.959.394 3.951.394 5.976 0 1.727-.101 3.431-.284 5.11l26.851 12.501c1.356-5.654 2.094-11.547 2.094-17.611 0-6.359-.799-12.535-2.286-18.439z"/>
<path class="svg-fill" d="m256 397.407c-13.623 0-25.904-5.847-34.475-15.158l-26.743 12.45c13.733 18.984 36.05 31.37 61.218 31.37 24.885 0 46.991-12.103 60.76-30.726l-26.851-12.5c-8.542 8.961-20.58 14.564-33.909 14.564z"/>
<path class="svg-fill" d="m256 189.079c-89.172 0-161.461 72.288-161.461 161.461s72.289 161.46 161.461 161.46 161.461-72.288 161.461-161.461-72.289-161.46-161.461-161.46zm0 266.989c-58.189 0-105.529-47.34-105.529-105.529s47.34-105.529 105.529-105.529 105.529 47.34 105.529 105.529-47.34 105.529-105.529 105.529z"/>
<path class="svg-fill"  d="m380.668 205.225 47.81-205.225h-102.59l-37.688 161.778c14.507 2.456 28.665 6.577 42.335 12.359 18.313 7.746 35.12 18.179 50.133 31.088z"/>
</g>
</svg>