<svg width="241" height="26" viewBox="0 0 241 26" fill="none" xmlns="http://www.w3.org/2000/svg">
<path d="M0.418535 25V0.499998H7.20854V9.67H15.9235V0.499998H22.7135V25H15.9235V15.69H7.20854V25H0.418535ZM126.94 25L137.37 0.324998H143.915L154.345 25H147.065L145.28 20.625H135.83L134.08 25H126.94ZM137.825 15.34H143.32L140.59 8.375L137.825 15.34Z" fill="#EE4747"/>
<path d="M52.2795 21.78C49.7595 24.2533 46.6212 25.49 42.8645 25.49C39.1078 25.49 35.9695 24.265 33.4495 21.815C30.9528 19.3417 29.7045 16.32 29.7045 12.75C29.7045 9.20333 30.9645 6.19333 33.4845 3.72C36.0278 1.24667 39.1778 0.00999838 42.9345 0.00999838C46.6912 0.00999838 49.8178 1.24667 52.3145 3.72C54.8345 6.17 56.0945 9.18 56.0945 12.75C56.0945 16.2967 54.8228 19.3067 52.2795 21.78ZM42.9345 19.365C44.7778 19.365 46.2712 18.7233 47.4145 17.44C48.5812 16.1567 49.1645 14.5933 49.1645 12.75C49.1645 10.93 48.5695 9.37833 47.3795 8.095C46.1895 6.78833 44.6845 6.135 42.8645 6.135C41.0445 6.135 39.5512 6.77667 38.3845 8.06C37.2412 9.34333 36.6695 10.9067 36.6695 12.75C36.6695 14.57 37.2528 16.1333 38.4195 17.44C39.6095 18.7233 41.1145 19.365 42.9345 19.365ZM72.7564 25.42C68.1364 25.42 64.3098 24.0667 61.2764 21.36L65.0564 16.845C67.5064 18.805 70.1548 19.785 73.0014 19.785C74.8681 19.785 75.8014 19.2017 75.8014 18.035C75.8014 17.5217 75.5214 17.1017 74.9614 16.775C74.4014 16.425 73.3048 16.0633 71.6714 15.69C70.1781 15.34 68.9414 15.0017 67.9614 14.675C67.0048 14.325 66.0598 13.87 65.1264 13.31C64.2164 12.7267 63.5398 11.9917 63.0964 11.105C62.6531 10.2183 62.4314 9.15667 62.4314 7.92C62.4314 5.61 63.2831 3.73167 64.9864 2.285C66.7131 0.814999 69.0231 0.0799996 71.9164 0.0799996C75.9298 0.0799996 79.2898 1.165 81.9964 3.335L78.6014 8.13C76.3148 6.52 74.0281 5.715 71.7414 5.715C70.9481 5.715 70.3414 5.86667 69.9214 6.17C69.5014 6.47333 69.2914 6.87 69.2914 7.36C69.2914 7.92 69.5714 8.36333 70.1314 8.69C70.7148 9.01667 71.8464 9.36667 73.5264 9.74C76.6064 10.4167 78.8931 11.3267 80.3864 12.47C81.9031 13.59 82.6614 15.2467 82.6614 17.44C82.6614 19.9133 81.7631 21.8617 79.9664 23.285C78.1698 24.7083 75.7664 25.42 72.7564 25.42ZM94.7649 25V6.45H87.4149V0.499998H108.905V6.45H101.555V25H94.7649ZM111.744 16.985V11.14H123.224V16.985H111.744ZM170.29 25.455C166.697 25.455 163.909 24.5217 161.925 22.655C159.942 20.7883 158.95 17.9883 158.95 14.255V0.499998H165.845V14.115C165.845 15.8417 166.242 17.1483 167.035 18.035C167.852 18.8983 168.96 19.33 170.36 19.33C171.76 19.33 172.857 18.91 173.65 18.07C174.467 17.23 174.875 15.97 174.875 14.29V0.499998H181.77V14.08C181.77 17.9067 180.755 20.765 178.725 22.655C176.719 24.5217 173.907 25.455 170.29 25.455ZM195.274 25V6.45H187.924V0.499998H209.414V6.45H202.064V25H195.274ZM236.57 21.78C234.05 24.2533 230.911 25.49 227.155 25.49C223.398 25.49 220.26 24.265 217.74 21.815C215.243 19.3417 213.995 16.32 213.995 12.75C213.995 9.20333 215.255 6.19333 217.775 3.72C220.318 1.24667 223.468 0.00999838 227.225 0.00999838C230.981 0.00999838 234.108 1.24667 236.605 3.72C239.125 6.17 240.385 9.18 240.385 12.75C240.385 16.2967 239.113 19.3067 236.57 21.78ZM227.225 19.365C229.068 19.365 230.561 18.7233 231.705 17.44C232.871 16.1567 233.455 14.5933 233.455 12.75C233.455 10.93 232.86 9.37833 231.67 8.095C230.48 6.78833 228.975 6.135 227.155 6.135C225.335 6.135 223.841 6.77667 222.675 8.06C221.531 9.34333 220.96 10.9067 220.96 12.75C220.96 14.57 221.543 16.1333 222.71 17.44C223.9 18.7233 225.405 19.365 227.225 19.365Z" fill="#3B3B3B"/>
</svg>
