
<svg version="1.1" id="c78" xmlns="http://www.w3.org/2000/svg" xmlns:xlink="http://www.w3.org/1999/xlink" x="0px" y="0px"
	 viewBox="0 0 465.6 465.6" style="enable-background:new 0 0 465.6 465.6;" xml:space="preserve">
<style type="text/css">
	.st0{fill:#1D1D1B;}
</style>
<g>
	<path class="st0" d="M434.3,124.3C394.4,49.5,316,1.8,230.5,1.8C140,1.8,57.3,55.1,20,137.6c-3.9,8.5-0.1,18.6,8.5,22.5
		c8.5,3.9,18.6,0.1,22.5-8.5C82.8,81.3,153.3,35.9,230.5,35.9c72.2,0,138.5,39.8,172.9,102.5L373,152.1l82.7,59.2l10-101.2
		L434.3,124.3z M429.6,313.1c-8.4-4.2-18.6-0.8-22.8,7.6C373.2,388,305.6,429.8,230.5,429.8c-70.2,0-133.8-36.5-169.2-96.1L91,318.8
		L6.2,262.7L0,364.2l30.8-15.3c41.3,71.2,116.5,114.9,199.7,114.9c88.1,0,167.4-49,206.8-127.9C441.4,327.5,438,317.2,429.6,313.1z"
		/>
</g>
<g>
	<g>
		<path class="st0" d="M125.8,149.8h-15.2v-7.7h41.3v7.7h-15.2v33h-11V149.8z"/>
		<path class="st0" d="M188,182.9l-9.1-11.3h-0.5h-9.5v11.3h-11v-40.7h20.5c4.2,0,7.8,0.6,10.9,1.8c3.1,1.2,5.5,2.9,7.1,5.1
			c1.7,2.2,2.5,4.8,2.5,7.8c0,3-0.8,5.6-2.5,7.8s-4.1,3.9-7.2,5l10.6,13.1H188z M185.2,151.7c-1.7-1.2-4.2-1.8-7.5-1.8h-8.9V164h8.9
			c3.3,0,5.8-0.6,7.5-1.9s2.6-3,2.6-5.2C187.8,154.6,186.9,152.9,185.2,151.7z"/>
		<path class="st0" d="M238.7,174.1h-22l-4.2,8.7h-11.2l21.1-40.7h10.8l21.2,40.7h-11.5L238.7,174.1z M235.3,167l-7.5-15.6
			l-7.5,15.6H235.3z"/>
		<path class="st0" d="M259.3,142.2h21.5c5.1,0,9.7,0.8,13.6,2.5c3.9,1.7,7,4.1,9.2,7.1c2.2,3.1,3.3,6.6,3.3,10.7s-1.1,7.6-3.3,10.7
			c-2.2,3.1-5.3,5.4-9.2,7.1c-3.9,1.7-8.5,2.5-13.6,2.5h-21.5V142.2z M280.3,175.1c4.7,0,8.5-1.1,11.3-3.4c2.8-2.3,4.2-5.3,4.2-9.2
			c0-3.9-1.4-6.9-4.2-9.2c-2.8-2.3-6.6-3.4-11.3-3.4h-10v25.2H280.3z"/>
		<path class="st0" d="M351.9,175.3v7.6h-36.7v-40.7H351v7.6h-24.9v8.8h22v7.3h-22v9.4H351.9z"/>
	</g>
	<g>
		<path class="st0" d="M129.7,196.6h37.6v126.9h-37.6V196.6z"/>
		<path class="st0" d="M355,196.6v126.9h-30.9l-81.1-77v77h-37.2V196.6H237l80.8,77v-77H355z"/>
	</g>
</g>
</svg>
