<svg width="22" height="26" viewBox="0 0 22 26" fill="none" xmlns="http://www.w3.org/2000/svg">
<path d="M20.851 2.29264C17.5868 2.12083 14.4084 1.34772 11.23 0.316895C8.22346 1.34772 5.13099 2.03493 1.69492 2.29264C1.17951 2.37854 0.75 2.80805 0.75 3.32346V15.0061C0.75 18.1845 2.55394 21.1051 5.3887 22.5655L10.8005 25.3143C10.8864 25.4002 11.1441 25.4002 11.23 25.4002C11.4018 25.4002 11.5736 25.4002 11.6595 25.3143L17.0713 22.5655C19.9061 21.1051 21.71 18.2704 21.71 15.0061V3.32346C21.8819 2.80805 21.4523 2.37854 20.851 2.29264ZM16.2982 20.6756L11.3159 23.1668V12.8586H2.89755V4.35428C5.73231 4.09657 8.56707 3.40936 11.3159 2.55034V12.8586H19.7343V15.092C19.7343 17.4114 18.3599 19.6448 16.2982 20.6756Z" fill="#CCCCCC"/>
</svg>
