<!-- icon666.com - MILLIONS vector ICONS FREE --><svg id="Capa_1" enable-background="new 0 0 448 448" viewBox="0 0 448 448" xmlns="http://www.w3.org/2000/svg"><path d="m80 160h48v32h-48z"></path><path d="m336 184h40v24h-40z"></path><path d="m336 304h40v24h-40z"></path><path d="m336 264h40v24h-40z"></path><path d="m184 160h-40v40c0 4.418-3.582 8-8 8h-64c-4.418 0-8-3.582-8-8v-40h-40v128h160zm-48 112h-16v-16h16zm32 0h-16v-16h16z"></path><path d="m80 304h48v32h-48z"></path><path d="m144 304v40c0 4.418-3.582 8-8 8h-64c-4.418 0-8-3.582-8-8v-40h-64v144h208v-144zm16 128h-16v-16h16zm32 0h-16v-16h16z"></path><path d="m336 224h40v24h-40z"></path><path d="m304 64c-.002-5.374.538-10.734 1.61-16h-201.61v96h88c4.418 0 8 3.582 8 8v136h16c4.418 0 8 3.582 8 8v120h192v-278.7c-40.46 17.695-87.605-.76-105.3-41.22-4.424-10.116-6.706-21.039-6.7-32.08zm-144 8h104v16h-104zm-32 0h16v16h-16zm0 48v-16h136v16zm232 272h-16v-16h16zm32 0h-16v-16h16zm0-216v160c0 4.418-3.582 8-8 8h-144v-16h80v-24h-80v-16h80v-24h-104v-16h104v-24h-104v-16h104v-24h-104v-16h168c4.418 0 8 3.582 8 8z"></path><path d="m384 0c-35.346 0-64 28.654-64 64s28.654 64 64 64 64-28.654 64-64c-.04-35.33-28.67-63.96-64-64zm-32 32h16v16h-16zm13.657 61.657-11.314-11.314 48-48 11.314 11.314zm50.343 2.343h-16v-16h16z"></path></svg>