<svg xmlns="http://www.w3.org/2000/svg" xmlns:xlink="http://www.w3.org/1999/xlink" version="1.1" id="Capa_1" x="0px" y="0px" viewBox="0 0 337.222 337.222" style="enable-background:new 0 0 337.222 337.222;" xml:space="preserve"><script xmlns=""/><g><path d="M168.611,0C75.489,0,0,75.489,0,168.611s75.489,168.611,168.611,168.611 s168.611-75.489,168.611-168.611S261.733,0,168.611,0z M168.611,304.588c-74.978,0-135.977-60.999-135.977-135.977 S93.633,32.634,168.611,32.634s135.977,60.999,135.977,135.977S243.588,304.588,168.611,304.588z"/><path d="M166.299,249.751h21.783v36.132h-21.783V249.751z M53.194,151.483h36.279v27.195H53.194 C53.194,178.679,53.194,151.483,53.194,151.483z M252.911,216.671l19.847,11.46c1.773-3.155,3.399-6.407,4.884-9.73l-19.287-11.145 L252.911,216.671z M216.85,248.636l13.745,23.616c3.095-1.925,6.108-3.971,9.007-6.162l-13.353-22.931L216.85,248.636z M118.316,272.312l-9.399-5.472l13.788-23.682l9.399,5.477L118.316,272.312z M72.274,230.41l-5.439-9.415l23.774-13.728 l5.439,9.415L72.274,230.41z M90.615,122.907l-23.774-13.734l5.439-9.42l23.774,13.734L90.615,122.907z M122.711,87.009 l-13.788-23.676l9.399-5.472l13.788,23.676L122.711,87.009z"/><path d="M166.299,46.64v121.971H288.27C288.27,101.248,233.662,46.64,166.299,46.64z M200.277,144.543 c0,3.432-2.382,6.217-5.325,6.217c-2.932,0-5.319-2.785-5.319-6.217v-23.997c0-3.432-2.779-6.217-6.211-6.217 c-3.437,0-6.217-1.583-6.217-3.535c0-1.953,1.539-3.584,3.443-3.742c1.496-0.125,2.638-0.272,3.432-0.446 c2.083-0.462,3.775-1.387,5.091-2.768c0.892-0.946,1.572-2.208,2.029-3.791c0.114-0.392,0.201-0.745,0.267-1.05 c0.114-0.582,2.078-1.061,4.471-1.061c2.388,0,4.335,2.785,4.335,6.217v40.391H200.277z M247.32,146.387 c-3.133,3.84-7.821,5.755-14.055,5.755c-5.02,0-9.148-1.349-12.374-4.047c-1.757-1.474-3.095-3.285-4.003-5.434 c-1.338-3.166,0.941-6.037,3.796-6.037c2.85,0,5.347,1.305,5.978,2.785c0.408,0.968,0.93,1.779,1.556,2.442 c1.164,1.224,2.861,1.838,5.086,1.838c2.573,0,4.525-0.903,5.874-2.714c1.349-1.811,2.018-4.085,2.018-6.831 c0-2.698-0.626-4.971-1.887-6.831c-1.256-1.86-3.225-2.785-5.891-2.785c-1.262,0-2.35,0.158-3.274,0.473 c-0.81,0.294-1.528,0.713-2.148,1.262c-1.039,0.919-3.606,1.882-6.173,1.762c-2.573-0.12-4.302-2.981-3.867-6.385l2.138-16.845 c0.435-3.405,3.568-6.168,7-6.168h16.627c3.432,0,6.222,1.974,6.222,4.406c0,2.431-2.79,4.406-6.222,4.406h-9.138 c-3.432,0-6.641,2.584-7.158,5.776c-0.528,3.187-0.152,5.238,0.881,4.65c0.756-0.435,1.403-0.756,1.925-0.952 c1.496-0.56,3.334-0.838,5.493-0.838c4.368,0,8.175,1.469,11.422,4.406c3.258,2.937,4.873,7.212,4.873,12.825 C252.008,138.19,250.442,142.552,247.32,146.387z"/></g><script xmlns=""/></svg>